HIERARCHY
ROOT Hips
{
	OFFSET 0.000000 0.000000 0.000000 
	CHANNELS 6 Xposition Yposition Zposition Yrotation Zrotation Xrotation 
	JOINT Lumbar
	{
		OFFSET 0.000000 0.000000 0.000000 
		CHANNELS 3 Zrotation Xrotation Yrotation
		JOINT Neck
		{
			OFFSET 0.000000 0.445665 0.000000 
			CHANNELS 3 Zrotation Xrotation Yrotation
			End Site
			{
				OFFSET 0.000000 0.227535 0.000000 
			}
		}
		JOINT RightShoulder
		{
			OFFSET 0.019635 0.377685 0.194865 
			CHANNELS 3 Zrotation Xrotation Yrotation
			JOINT RightElbow
			{
				OFFSET 0.000000 -0.243375 0.000000 
				CHANNELS 2 Zrotation Yrotation
				JOINT RightWrist
				{
					OFFSET 0.000000 -0.264825 0.000000 
					CHANNELS 2 Zrotation Xrotation
					End Site
					{
						OFFSET 0.006600 -0.176220 0.000990 
					}
				}
			}
		}
		JOINT LeftShoulder
		{
			OFFSET 0.019635 0.377685 -0.194865 
			CHANNELS 3 Zrotation Xrotation Yrotation
			JOINT LeftElbow
			{
				OFFSET 0.000000 -0.243375 0.000000 
				CHANNELS 2 Zrotation Yrotation
				JOINT LeftWrist
				{
					OFFSET 0.000000 -0.264825 0.000000 
					CHANNELS 2 Zrotation Xrotation
					End Site
					{
						OFFSET 0.006600 -0.176220 -0.000990 
					}
				}
			}
		}
	}
	JOINT RightHip
	{
		OFFSET 0.052140 -0.069960 0.075570 
		CHANNELS 3 Zrotation Xrotation Yrotation
		JOINT RightKnee
		{
			OFFSET 0.000000 -0.402270 0.000000 
			CHANNELS 1 Zrotation
			JOINT RightAnkle
			{
				OFFSET 0.000000 -0.404085 0.000000 
				CHANNELS 3 Zrotation Xrotation Yrotation
				End Site
				{
					OFFSET 0.204105 -0.089430 0.008415 
				}
			}
		}
	}
	JOINT LeftHip
	{
		OFFSET 0.052140 -0.069960 -0.075570 
		CHANNELS 3 Zrotation Xrotation Yrotation
		JOINT LeftKnee
		{
			OFFSET 0.000000 -0.402270 0.000000 
			CHANNELS 1 Zrotation
			JOINT LeftAnkle
			{
				OFFSET 0.000000 -0.404085 0.000000 
				CHANNELS 3 Zrotation Xrotation Yrotation
				End Site
				{
					OFFSET 0.204105 -0.089430 -0.008415 
				}
			}
		}
	}
}
MOTION
Frames: 25
Frame Time: 0.02
0.27289 0.04646 -0.24312 105.00958 -30.69633 -18.84168 35.28095 0.07638 -6.3683 -1.61414 24.47085 -2.11994 47.07058 13.96493 25.368 134.30118 136.17208 -62.87232 -8.99995 -24.00571 7.75395 -0.76483 50.58095 -62.22277 -19.85888 -1.28822 28.83526 8.40272 -22.73267 -17.56652 -6.45711 -1.03238 -2.74962 47.31575 15.95549 -7.07381 -60.51747 -10.83731 0.29587 2.57056
0.27468 0.04552 -0.23651 104.97146 -30.89165 -18.78674 34.01273 0.45783 -6.2867 -0.89206 24.40526 -2.11994 46.44505 14.05697 25.9577 134.30119 136.12725 -63.09793 -9.02846 -23.33355 7.73705 -0.39563 50.07687 -62.47413 -19.51101 -1.30818 29.50702 8.31805 -22.79334 -17.6314 -6.45035 -1.05619 -2.75915 49.41898 15.51344 -6.43486 -62.61296 -10.82635 0.54831 2.69341
0.27646 0.04457 -0.22933 104.92134 -31.11049 -18.75011 32.63165 0.86053 -6.24629 -0.05731 24.35421 -2.11994 45.73866 14.21004 26.73512 134.30122 136.09747 -63.46625 -9.10039 -22.61023 7.74695 -0.12941 49.49799 -62.7756 -19.15288 -1.32079 30.23289 8.22023 -22.91342 -17.69665 -6.4519 -1.07513 -2.76634 51.61324 15.12469 -5.52252 -64.65103 -10.73683 0.83186 2.82829
0.27823 0.04367 -0.22237 104.88483 -31.34156 -18.70275 31.3125 1.24818 -6.19414 0.74362 24.29978 -2.11994 45.07481 14.32888 27.42829 134.30124 136.06072 -63.75966 -9.14797 -21.89478 7.74304 0.17027 48.94562 -63.06433 -18.80371 -1.33278 30.95891 8.1238 -22.98353 -17.76041 -6.45007 -1.09878 -2.77591 53.76619 14.69264 -4.74683 -66.61695 -10.67288 1.09119 2.95231
0.28004 0.04257 -0.21553 104.81392 -31.47458 -18.66678 29.93971 1.66168 -6.11262 1.47395 24.23304 -2.11994 44.38 14.47504 28.11998 134.30126 136.02648 -64.1024 -9.21625 -21.24308 7.74664 0.52814 48.424 -63.32504 -18.43197 -1.35911 31.58242 8.04787 -23.15044 -17.83112 -6.44635 -1.1121 -2.78004 55.93483 14.33419 -3.93006 -69.02477 -10.6513 1.39438 3.09969
0.28178 0.04189 -0.20834 104.81143 -31.81859 -18.61128 28.65742 2.02483 -6.10143 2.37678 24.19507 -2.11994 43.735 14.57969 28.85701 134.30128 135.98934 -64.37172 -9.25132 -20.44677 7.73993 0.73992 47.82179 -63.63991 -18.11014 -1.3565 32.43152 7.92552 -23.13149 -17.88675 -6.44872 -1.14558 -2.79483 58.08268 13.84016 -3.12521 -70.47851 -10.52432 1.61306 3.20109
0.28332 0.04238 -0.20022 105.00447 -32.7303 -18.49442 27.62546 2.24836 -6.28099 3.73096 24.2313 -2.11994 43.22269 14.54437 29.68805 134.30128 135.9462 -64.42827 -9.1841 -19.26602 7.70826 0.56823 47.00511 -64.23169 -17.88063 -1.25273 33.88954 7.68094 -22.56506 -17.90284 -6.46479 -1.23738 -2.84028 60.19488 12.92924 -2.47817 -69.43337 -10.10856 1.59159 3.17216
0.28478 0.04331 -0.19179 105.26561 -33.85457 -18.35822 26.69454 2.41938 -6.52832 5.25354 24.29639 -2.11994 42.76865 14.46708 30.55545 134.30128 135.89809 -64.40157 -9.08225 -17.94184 7.66375 0.25269 46.11249 -64.856 -17.70854 -1.12348 35.57173 7.39002 -21.81297 -17.90332 -6.48688 -1.34932 -2.89637 62.27273 11.88624 -1.84367 -67.40797 -9.59234 1.48389 3.09663
0.28626 0.04406 -0.18357 105.49391 -34.88858 -18.23181 25.73594 2.61086 -6.74093 6.69757 24.34875 -2.11994 42.30453 14.41564 31.396 134.30128 135.84863 -64.39487 -8.99542 -16.68121 7.61818 0.00746 45.26044 -65.3658 -17.54441 -1.02229 37.1526 7.11763 -21.1586 -17.90911 -6.50704 -1.45115 -2.94716 64.33627 10.92348 -1.1609 -65.74554 -9.13322 1.41468 3.0425
0.28781 0.04474 -0.17505 105.73196 -35.89979 -18.09932 24.69584 2.81694 -6.97331 8.15604 24.39873 -2.11994 41.7677 14.33747 32.28585 134.30128 135.81602 -64.46487 -8.91118 -15.42323 7.60145 -0.2579 44.37735 -66.27332 -17.24497 -0.85522 38.73657 6.85306 -20.45006 -17.92177 -6.52432 -1.55702 -2.99993 66.53112 9.87666 -0.6368 -64.41767 -8.62349 1.34865 2.98743
0.28919 0.04565 -0.16711 105.96328 -37.00473 -17.97783 23.85155 2.98058 -7.17783 9.6205 24.46193 -2.11994 41.39793 14.30457 33.08029 134.30128 135.7456 -64.35805 -8.81525 -14.12937 7.52276 -0.51952 43.54545 -66.39101 -17.23008 -0.81447 40.36217 6.56439 -19.80939 -17.91727 -6.54861 -1.65913 -3.05103 68.44106 8.97348 0.19667 -62.17605 -8.19578 1.25621 2.92362
0.29014 0.04714 -0.16066 106.1831 -38.34982 -17.86429 23.51965 3.03339 -7.308 11.08022 24.54114 -2.11994 41.4699 14.40303 33.59214 134.30128 135.58438 -63.74361 -8.67363 -12.7464 7.26326 -0.68899 42.84348 -64.04349 -18.0836 -1.17207 42.08492 6.1947 -19.40292 -17.86151 -6.59347 -1.7473 -3.09585 69.58836 8.49476 2.01155 -57.52154 -8.02447 1.10217 2.84261
0.29092 0.04882 -0.15484 106.38945 -39.77522 -17.76753 23.38266 3.04637 -7.4042 12.53556 24.6353 -2.11994 41.70934 14.54868 34.00784 134.30128 135.38368 -62.96123 -8.52507 -11.33754 6.94422 -0.85759 42.20184 -60.94744 -19.20483 -1.6502 43.83407 5.80726 -19.07134 -17.79038 -6.64462 -1.83066 -3.13843 70.44638 8.1661 4.11367 -52.00723 -7.9387 0.9262 2.7552
0.29178 0.05037 -0.14886 106.58644 -41.14238 -17.68074 23.15924 3.08177 -7.50296 13.9796 24.73107 -2.11994 41.8761 14.67531 34.47314 134.30128 135.1919 -62.28045 -8.39414 -9.9569 6.66065 -1.05711 41.55239 -58.3799 -20.13844 -2.04402 45.54725 5.44488 -18.70332 -17.73138 -6.69112 -1.91545 -3.18149 71.42642 7.77091 6.00156 -46.9698 -7.81047 0.76648 2.67356
0.29263 0.05215 -0.14235 106.85111 -42.61025 -17.51875 22.92983 3.09728 -7.65774 15.48686 24.79148 -2.11994 42.03061 14.79129 34.91428 134.30128 135.03488 -61.48825 -8.20191 -8.50051 6.34079 -1.13427 40.81667 -55.03428 -21.34706 -2.55921 47.37175 5.00903 -18.33595 -17.65034 -6.74548 -2.00453 -3.22737 72.4464 7.36255 8.24256 -41.52818 -7.69324 0.5772 2.57819
0.29346 0.05348 -0.1371 106.97079 -43.8828 -17.51795 22.75837 3.14523 -7.6878 16.85777 24.92982 -2.11994 42.24936 14.93992 35.3832 134.30128 134.80009 -60.89168 -8.13492 -7.19917 6.08297 -1.4624 40.27698 -53.11118 -22.05254 -2.85363 48.96492 4.72272 -17.99126 -17.61145 -6.78475 -2.08279 -3.26649 73.31341 7.02093 9.8164 -36.74495 -7.57547 0.44547 2.51054
0.29431 0.05353 -0.13509 106.69297 -44.6106 -17.95477 22.69506 3.29427 -7.37363 17.86356 25.26936 -2.11994 42.60696 15.17854 35.94405 134.30129 134.32554 -60.85475 -8.42562 -6.31997 6.00783 -2.49868 40.25579 -55.47123 -21.24343 -2.48247 49.9348 4.85257 -17.65898 -17.69544 -6.78196 -2.13635 -3.2893 73.84129 6.81073 9.47871 -33.92769 -7.42974 0.47766 2.52073
0.29514 0.05312 -0.13432 106.26987 -45.13514 -18.55334 22.68368 3.47709 -6.93656 18.72903 25.68792 -2.11994 43.02269 15.44653 36.53679 134.30129 133.78005 -61.02379 -8.84052 -5.60079 5.99817 -3.78406 40.43161 -59.25682 -19.92925 -1.89005 50.66535 5.13358 -17.3538 -17.82189 -6.76356 -2.17835 -3.30502 74.22279 6.66597 8.4608 -31.81937 -7.28215 0.56887 2.55925
0.29594 0.05291 -0.13303 105.91266 -45.74249 -19.08096 22.65074 3.64373 -6.56036 19.65172 26.07775 -2.11994 43.40993 15.69378 37.12109 134.3013 133.29041 -61.11454 -9.19246 -4.81705 5.96029 -4.94486 40.52302 -62.27635 -18.88566 -1.4164 51.49037 5.34688 -17.05809 -17.9273 -6.75151 -2.22293 -3.32277 74.66365 6.50282 7.7521 -29.43233 -7.13951 0.63396 2.58533
0.29688 0.05275 -0.13159 105.55378 -46.39383 -19.60092 22.61594 3.8131 -6.16064 20.60398 26.44052 -2.11994 43.81179 15.97369 37.6795 134.3013 132.70182 -61.13935 -9.57302 -3.99752 5.91248 -6.15369 40.59522 -65.7673 -17.67956 -0.87001 52.37828 5.55706 -16.673 -18.03982 -6.74272 -2.27865 -3.34547 75.12574 6.29786 7.04792 -26.83095 -6.98218 0.69596 2.60965
0.29753 0.05238 -0.13075 105.16634 -46.90339 -20.17181 22.59495 3.98452 -5.78267 21.45891 26.87482 -2.11994 44.19483 16.19217 38.29691 134.3013 132.30033 -61.34681 -9.92183 -3.29131 5.90336 -7.32172 40.753 -68.6266 -16.6867 -0.42104 53.07615 5.80776 -16.47945 -18.14744 -6.72347 -2.30845 -3.35619 75.51123 6.1924 6.17554 -24.85595 -6.85426 0.77786 2.64406
0.2975 0.05154 -0.13128 104.71465 -47.07617 -20.87136 22.59693 4.16047 -5.48202 22.09848 27.51579 -2.11994 44.51031 16.23154 39.1005 134.3013 132.45604 -62.05851 -10.16745 -2.8567 5.97082 -8.31345 41.10215 -69.37923 -16.42027 -0.29437 53.32237 6.15206 -16.80839 -18.23435 -6.67804 -2.26983 -3.33559 75.73388 6.3564 4.94831 -24.44241 -6.80489 0.90766 2.70274
0.29718 0.05051 -0.13237 104.24235 -47.11132 -21.61137 22.61054 4.33618 -5.21009 22.64036 28.22024 -2.11994 44.80393 16.20819 39.95607 134.3013 132.79833 -62.9379 -10.37418 -2.53165 6.07772 -9.25483 41.52935 -69.45331 -16.38193 -0.27291 53.3823 6.52868 -17.32823 -18.31436 -6.62282 -2.20547 -3.30317 75.88327 6.6161 3.58495 -24.63889 -6.7854 1.05417 2.77
0.29695 0.04958 -0.1332 103.79432 -47.20652 -22.31464 22.61939 4.50757 -4.93352 23.21575 28.87731 -2.11994 45.10801 16.21498 40.76918 134.3013 133.04025 -63.70902 -10.58892 -2.15742 6.17645 -10.22253 41.91885 -69.85077 -16.22856 -0.2032 53.51841 6.87817 -17.7609 -18.39545 -6.57278 -2.15275 -3.27616 76.05962 6.82351 2.31903 -24.5562 -6.75383 1.18831 2.83118
0.2969 0.04855 -0.13409 103.28175 -47.30767 -23.10097 22.62776 4.69888 -4.61698 23.83638 29.61691 -2.11994 45.41331 16.21628 41.66687 134.3013 133.3456 -64.62458 -10.84847 -1.78424 6.23707 -11.18928 42.32622 -70.23404 -16.10561 -0.1277 53.68384 7.28489 -18.19855 -18.48657 -6.51907 -2.09997 -3.2488 76.25864 7.06812 0.8772 -24.50312 -6.71575 1.3447 2.90258
